<?xml version="1.0" encoding="UTF-8"?>
<svg xmlns="http://www.w3.org/2000/svg" xmlns:xlink="http://www.w3.org/1999/xlink" width="1920" height="1080" viewBox="0 0 1920 1080">
<defs>
<g>
<g id="glyph-0-0">
<path d="M 2.683594 -1.484375 C 2.699219 -1.953125 2.707031 -2.425781 2.707031 -2.902344 C 2.707031 -3.382812 2.699219 -3.855469 2.683594 -4.324219 L 3.074219 -4.113281 L 4.375 -4.113281 C 4.6875 -4.738281 4.859375 -5.183594 4.894531 -5.441406 L 5.417969 -5.078125 C 5.296875 -5.007812 5.167969 -4.910156 5.039062 -4.777344 C 4.910156 -4.648438 4.730469 -4.425781 4.503906 -4.113281 L 5.3125 -4.113281 L 5.519531 -4.375 L 5.910156 -4.035156 L 5.703125 -3.878906 C 5.703125 -2.734375 5.710938 -2.023438 5.730469 -1.746094 L 5.363281 -1.5625 L 5.363281 -1.953125 L 4.347656 -1.953125 L 4.347656 -1.066406 L 5.574219 -1.066406 L 5.910156 -1.40625 L 6.378906 -0.910156 L 4.347656 -0.910156 C 4.347656 -0.304688 4.359375 0.171875 4.375 0.519531 L 3.984375 0.703125 C 4 0.183594 4.011719 -0.355469 4.011719 -0.910156 L 2.578125 -0.910156 L 2.34375 -0.859375 L 2.136719 -1.066406 L 4.011719 -1.066406 L 4.011719 -1.953125 L 3.046875 -1.953125 L 3.046875 -1.667969 L 2.683594 -1.484375 M 3.152344 -5.363281 C 3.515625 -5.121094 3.738281 -4.953125 3.816406 -4.855469 C 3.894531 -4.761719 3.933594 -4.679688 3.933594 -4.609375 C 3.933594 -4.539062 3.902344 -4.460938 3.839844 -4.375 C 3.78125 -4.289062 3.734375 -4.246094 3.699219 -4.246094 C 3.628906 -4.246094 3.578125 -4.3125 3.542969 -4.453125 C 3.472656 -4.679688 3.316406 -4.964844 3.074219 -5.3125 L 3.152344 -5.363281 M 3.046875 -3.957031 L 3.046875 -3.125 L 4.011719 -3.125 L 4.011719 -3.957031 L 3.046875 -3.957031 M 4.347656 -3.957031 L 4.347656 -3.125 L 5.363281 -3.125 L 5.363281 -3.957031 L 4.347656 -3.957031 M 3.046875 -2.96875 L 3.046875 -2.109375 L 4.011719 -2.109375 L 4.011719 -2.96875 L 3.046875 -2.96875 M 4.347656 -2.96875 L 4.347656 -2.109375 L 5.363281 -2.109375 L 5.363281 -2.96875 L 4.347656 -2.96875 M 1.09375 -3.203125 L 0.910156 -2.1875 L 1.746094 -2.1875 L 1.980469 -2.421875 L 2.316406 -2.082031 L 2.136719 -1.925781 C 2.101562 -1.492188 2.058594 -1.097656 2.003906 -0.742188 C 1.953125 -0.386719 1.878906 -0.117188 1.785156 0.0664062 C 1.6875 0.246094 1.476562 0.40625 1.144531 0.546875 C 1.078125 0.269531 0.832031 0.0625 0.417969 -0.078125 L 0.441406 -0.183594 C 0.910156 -0.078125 1.195312 -0.03125 1.289062 -0.0390625 C 1.382812 -0.046875 1.457031 -0.109375 1.511719 -0.222656 C 1.5625 -0.335938 1.609375 -0.511719 1.652344 -0.753906 C 1.695312 -1 1.734375 -1.421875 1.769531 -2.03125 L 0.910156 -2.03125 L 0.730469 -1.769531 L 0.363281 -2.109375 C 0.484375 -2.179688 0.570312 -2.316406 0.613281 -2.527344 C 0.65625 -2.734375 0.703125 -3.089844 0.753906 -3.59375 L 1.121094 -3.359375 L 1.847656 -3.359375 L 1.847656 -4.582031 L 0.988281 -4.582031 L 0.703125 -4.53125 L 0.496094 -4.738281 L 1.796875 -4.738281 L 2.03125 -4.972656 L 2.371094 -4.636719 L 2.1875 -4.480469 C 2.1875 -3.835938 2.195312 -3.367188 2.214844 -3.074219 L 1.847656 -2.917969 L 1.847656 -3.203125 Z "/>
</g>
<g id="glyph-0-1">
<path d="M 4.035156 -3.515625 C 4.035156 -3.8125 4.027344 -4.011719 4.011719 -4.113281 L 4.558594 -3.855469 L 4.375 -3.722656 L 4.375 -3.515625 L 5.078125 -3.515625 L 5.46875 -3.855469 L 5.9375 -3.359375 L 4.375 -3.359375 L 4.375 -2.785156 L 5.574219 -2.785156 L 5.988281 -3.097656 L 6.433594 -2.628906 L 3.488281 -2.628906 L 3.488281 -2.136719 L 4.871094 -2.136719 L 5.105469 -2.394531 L 5.46875 -2.03125 L 5.234375 -1.875 C 5.234375 -1.164062 5.242188 -0.71875 5.261719 -0.546875 L 4.894531 -0.417969 L 4.894531 -0.597656 L 1.746094 -0.597656 L 1.746094 -0.441406 L 1.378906 -0.261719 C 1.398438 -0.730469 1.40625 -1.128906 1.40625 -1.457031 C 1.40625 -1.789062 1.398438 -2.082031 1.378906 -2.34375 L 1.746094 -2.136719 L 3.152344 -2.136719 L 3.152344 -2.628906 L 1.09375 -2.628906 C 0.867188 -2.628906 0.660156 -2.605469 0.46875 -2.550781 L 0.234375 -2.785156 L 2.265625 -2.785156 L 2.265625 -3.359375 L 1.691406 -3.359375 C 1.46875 -3.359375 1.257812 -3.332031 1.066406 -3.28125 L 0.832031 -3.515625 L 2.265625 -3.515625 C 2.265625 -3.742188 2.257812 -3.914062 2.238281 -4.035156 L 2.8125 -3.777344 L 2.605469 -3.644531 L 2.605469 -3.515625 L 4.035156 -3.515625 M 2.605469 -3.359375 L 2.605469 -2.785156 L 4.035156 -2.785156 L 4.035156 -3.359375 L 2.605469 -3.359375 M 1.746094 -1.980469 L 1.746094 -1.433594 L 3.152344 -1.433594 L 3.152344 -1.980469 L 1.746094 -1.980469 M 3.488281 -1.980469 L 3.488281 -1.433594 L 4.894531 -1.433594 L 4.894531 -1.980469 L 3.488281 -1.980469 M 1.746094 -1.277344 L 1.746094 -0.753906 L 3.152344 -0.753906 L 3.152344 -1.277344 L 1.746094 -1.277344 M 3.488281 -1.277344 L 3.488281 -0.753906 L 4.894531 -0.753906 L 4.894531 -1.277344 L 3.488281 -1.277344 M 2.394531 -0.597656 L 2.785156 -0.15625 L 2.5 -0.128906 C 2.117188 0.0273438 1.804688 0.15625 1.5625 0.261719 C 1.300781 0.363281 0.980469 0.476562 0.597656 0.597656 L 0.574219 0.496094 C 0.972656 0.320312 1.34375 0.128906 1.691406 -0.078125 C 2.039062 -0.285156 2.273438 -0.460938 2.394531 -0.597656 M 4.035156 -0.519531 C 4.730469 -0.363281 5.207031 -0.222656 5.46875 -0.0898438 C 5.730469 0.0390625 5.867188 0.171875 5.886719 0.3125 C 5.902344 0.453125 5.882812 0.539062 5.820312 0.574219 C 5.757812 0.609375 5.667969 0.574219 5.546875 0.46875 C 5.40625 0.347656 5.273438 0.242188 5.144531 0.15625 C 5.011719 0.0703125 4.832031 -0.0351562 4.597656 -0.15625 C 4.363281 -0.277344 4.167969 -0.363281 4.011719 -0.417969 L 4.035156 -0.519531 M 2.082031 -4.660156 C 2.308594 -4.59375 2.46875 -4.519531 2.566406 -4.441406 C 2.660156 -4.363281 2.707031 -4.289062 2.707031 -4.21875 C 2.707031 -4.183594 2.695312 -4.136719 2.667969 -4.074219 C 2.644531 -4.015625 2.605469 -3.976562 2.550781 -3.957031 C 2.5 -3.941406 2.449219 -3.992188 2.394531 -4.113281 C 2.34375 -4.21875 2.273438 -4.324219 2.1875 -4.425781 C 2.101562 -4.53125 2.023438 -4.609375 1.953125 -4.660156 L 1.5625 -4.660156 C 1.441406 -4.558594 1.300781 -4.425781 1.144531 -4.269531 C 0.972656 -4.113281 0.746094 -3.949219 0.46875 -3.777344 L 0.441406 -3.878906 C 0.71875 -4.125 0.972656 -4.40625 1.199219 -4.726562 C 1.421875 -5.046875 1.578125 -5.3125 1.667969 -5.519531 L 2.136719 -5.15625 L 1.875 -5.050781 L 1.667969 -4.816406 L 2.734375 -4.816406 L 3.097656 -5.15625 L 3.542969 -4.660156 L 2.082031 -4.660156 M 4.636719 -4.660156 C 4.878906 -4.539062 5.035156 -4.441406 5.105469 -4.363281 C 5.171875 -4.285156 5.207031 -4.210938 5.207031 -4.140625 C 5.207031 -4.089844 5.195312 -4.027344 5.167969 -3.957031 C 5.144531 -3.890625 5.101562 -3.851562 5.039062 -3.839844 C 4.976562 -3.832031 4.929688 -3.878906 4.894531 -3.984375 C 4.859375 -4.089844 4.816406 -4.191406 4.765625 -4.296875 C 4.714844 -4.402344 4.617188 -4.523438 4.480469 -4.660156 L 4.011719 -4.660156 C 3.714844 -4.3125 3.445312 -4.054688 3.203125 -3.878906 L 3.125 -3.933594 C 3.351562 -4.210938 3.53125 -4.476562 3.671875 -4.726562 C 3.8125 -4.976562 3.933594 -5.234375 4.035156 -5.496094 L 4.503906 -5.15625 L 4.296875 -5.078125 L 4.089844 -4.816406 L 5.417969 -4.816406 L 5.78125 -5.15625 L 6.25 -4.660156 Z "/>
</g>
<g id="glyph-0-2">
<path d="M 3.253906 -3.984375 L 3.253906 -2.605469 L 4.191406 -2.605469 L 4.191406 -3.984375 L 3.253906 -3.984375 M 3.699219 -2.449219 C 3.921875 -1.804688 4.191406 -1.292969 4.503906 -0.910156 C 4.800781 -1.277344 5.050781 -1.789062 5.261719 -2.449219 L 3.699219 -2.449219 M 5.625 -2.292969 C 5.363281 -1.597656 5.0625 -1.050781 4.714844 -0.652344 C 5.148438 -0.21875 5.703125 0.0507812 6.378906 0.15625 L 6.378906 0.234375 C 6.15625 0.269531 5.988281 0.375 5.886719 0.546875 C 5.398438 0.339844 4.9375 0.0078125 4.503906 -0.441406 C 3.914062 0.0429688 3.265625 0.398438 2.550781 0.625 L 2.527344 0.519531 C 3.1875 0.226562 3.777344 -0.171875 4.296875 -0.675781 C 4 -1.128906 3.765625 -1.71875 3.59375 -2.449219 L 3.253906 -2.449219 C 3.238281 -1.753906 3.136719 -1.164062 2.957031 -0.675781 C 2.773438 -0.191406 2.429688 0.261719 1.925781 0.675781 L 1.847656 0.597656 C 2.214844 0.21875 2.476562 -0.210938 2.644531 -0.691406 C 2.808594 -1.167969 2.894531 -1.800781 2.902344 -2.589844 C 2.914062 -3.382812 2.90625 -3.984375 2.890625 -4.402344 L 3.308594 -4.140625 L 4.191406 -4.140625 C 4.191406 -4.730469 4.183594 -5.171875 4.167969 -5.46875 L 4.714844 -5.234375 L 4.53125 -5.027344 L 4.53125 -4.140625 L 5.574219 -4.140625 L 5.832031 -4.402344 L 6.277344 -3.90625 C 6.15625 -3.890625 6.039062 -3.855469 5.925781 -3.800781 C 5.8125 -3.75 5.632812 -3.566406 5.390625 -3.253906 L 5.285156 -3.308594 L 5.597656 -3.984375 L 4.53125 -3.984375 L 4.53125 -2.605469 L 5.234375 -2.605469 L 5.46875 -2.839844 L 5.859375 -2.449219 L 5.625 -2.292969 M 2.238281 -3.800781 C 2.101562 -3.488281 1.910156 -3.132812 1.667969 -2.734375 L 1.667969 -2.214844 L 1.824219 -2.136719 C 2.046875 -2.515625 2.203125 -2.855469 2.292969 -3.152344 L 2.734375 -2.8125 L 2.527344 -2.707031 C 2.316406 -2.5 2.109375 -2.292969 1.902344 -2.082031 C 2.265625 -1.875 2.460938 -1.726562 2.488281 -1.640625 C 2.511719 -1.554688 2.527344 -1.484375 2.527344 -1.433594 C 2.527344 -1.328125 2.5 -1.246094 2.449219 -1.183594 C 2.394531 -1.125 2.359375 -1.09375 2.34375 -1.09375 C 2.292969 -1.09375 2.25 -1.164062 2.214844 -1.300781 C 2.144531 -1.492188 1.960938 -1.753906 1.667969 -2.082031 C 1.667969 -0.796875 1.675781 0.0429688 1.691406 0.441406 L 1.300781 0.625 C 1.320312 0.207031 1.328125 -0.765625 1.328125 -2.292969 C 1.015625 -1.910156 0.675781 -1.589844 0.3125 -1.328125 L 0.261719 -1.40625 C 0.625 -1.753906 0.941406 -2.144531 1.210938 -2.578125 C 1.480469 -3.011719 1.703125 -3.453125 1.875 -3.90625 L 1.25 -3.90625 C 1.023438 -3.90625 0.816406 -3.878906 0.625 -3.828125 L 0.390625 -4.0625 L 1.847656 -4.0625 L 2.109375 -4.324219 L 2.472656 -3.957031 L 2.238281 -3.800781 M 1.09375 -5.441406 C 1.457031 -5.25 1.675781 -5.109375 1.746094 -5.011719 C 1.8125 -4.917969 1.847656 -4.835938 1.847656 -4.765625 C 1.847656 -4.695312 1.820312 -4.617188 1.757812 -4.53125 C 1.695312 -4.445312 1.65625 -4.402344 1.640625 -4.402344 C 1.589844 -4.402344 1.535156 -4.480469 1.484375 -4.636719 C 1.398438 -4.878906 1.25 -5.121094 1.042969 -5.363281 Z "/>
</g>
<g id="glyph-0-3">
<path d="M 1.925781 -2.65625 L 3.4375 -2.65625 L 3.4375 -3.828125 C 3.4375 -4.089844 3.429688 -4.3125 3.410156 -4.503906 L 4.011719 -4.191406 L 3.800781 -4.011719 L 3.800781 -2.65625 L 4.949219 -2.65625 L 5.285156 -2.996094 L 5.78125 -2.5 L 3.800781 -2.5 L 3.800781 -0.0507812 L 5.46875 -0.0507812 L 5.832031 -0.417969 L 6.355469 0.105469 L 2.003906 0.105469 C 1.78125 0.105469 1.570312 0.128906 1.378906 0.183594 L 1.144531 -0.0507812 L 3.4375 -0.0507812 L 3.4375 -2.5 L 2.785156 -2.5 C 2.5625 -2.5 2.351562 -2.472656 2.160156 -2.421875 L 1.925781 -2.65625 M 1.199219 -4.246094 C 1.199219 -4.488281 1.1875 -4.800781 1.171875 -5.183594 L 1.5625 -4.921875 L 5.183594 -4.921875 L 5.574219 -5.3125 L 6.121094 -4.765625 L 1.5625 -4.765625 L 1.5625 -2.734375 C 1.578125 -1.917969 1.488281 -1.273438 1.289062 -0.792969 C 1.089844 -0.316406 0.78125 0.128906 0.363281 0.546875 L 0.285156 0.46875 C 0.546875 0.121094 0.765625 -0.277344 0.9375 -0.730469 C 1.109375 -1.179688 1.199219 -1.78125 1.199219 -2.527344 L 1.199219 -4.246094 M 4.296875 -1.953125 L 4.375 -2.003906 C 4.792969 -1.726562 5.078125 -1.511719 5.234375 -1.355469 C 5.390625 -1.199219 5.46875 -1.058594 5.46875 -0.9375 C 5.46875 -0.867188 5.433594 -0.777344 5.363281 -0.664062 C 5.296875 -0.550781 5.242188 -0.496094 5.207031 -0.496094 C 5.15625 -0.496094 5.105469 -0.574219 5.050781 -0.730469 C 4.964844 -0.988281 4.714844 -1.398438 4.296875 -1.953125 Z "/>
</g>
<g id="glyph-0-4">
<path d="M 4.167969 -2.421875 L 4.167969 -1.378906 L 5.46875 -1.378906 L 5.46875 -2.421875 L 4.167969 -2.421875 M 4.167969 -1.222656 L 4.167969 -0.105469 L 5.46875 -0.105469 L 5.46875 -1.222656 L 4.167969 -1.222656 M 5.808594 -0.261719 C 5.808594 0.0507812 5.816406 0.269531 5.832031 0.390625 L 5.46875 0.574219 L 5.46875 0.0507812 L 4.167969 0.0507812 L 4.167969 0.46875 L 3.800781 0.625 C 3.820312 0.140625 3.828125 -0.398438 3.828125 -0.988281 C 3.828125 -1.578125 3.820312 -2.171875 3.800781 -2.761719 L 4.167969 -2.578125 L 4.480469 -2.578125 C 4.546875 -2.90625 4.601562 -3.203125 4.636719 -3.464844 L 4.453125 -3.464844 C 4.226562 -3.464844 4.019531 -3.4375 3.828125 -3.386719 L 3.59375 -3.621094 L 5.574219 -3.621094 L 5.886719 -3.90625 L 6.328125 -3.464844 L 5.078125 -3.464844 C 4.9375 -3.253906 4.78125 -2.960938 4.609375 -2.578125 L 5.417969 -2.578125 L 5.597656 -2.8125 L 6.015625 -2.527344 L 5.808594 -2.371094 L 5.808594 -0.261719 M 3.152344 -2.421875 L 3.152344 0.496094 L 2.785156 0.703125 C 2.804688 0.425781 2.8125 0.113281 2.8125 -0.234375 L 2.8125 -2.238281 C 2.550781 -1.859375 2.273438 -1.527344 1.980469 -1.25 L 1.902344 -1.300781 C 2.28125 -1.824219 2.574219 -2.328125 2.773438 -2.8125 C 2.972656 -3.296875 3.117188 -3.734375 3.203125 -4.113281 L 3.722656 -3.800781 L 3.488281 -3.671875 C 3.316406 -3.289062 3.167969 -2.976562 3.046875 -2.734375 L 3.332031 -2.550781 L 3.152344 -2.421875 M 5.390625 -3.90625 L 5.730469 -4.480469 L 2.96875 -4.480469 C 2.984375 -4.269531 2.964844 -4.113281 2.902344 -4.011719 C 2.84375 -3.90625 2.757812 -3.851562 2.644531 -3.839844 C 2.53125 -3.832031 2.460938 -3.84375 2.433594 -3.878906 C 2.410156 -3.914062 2.394531 -3.941406 2.394531 -3.957031 C 2.394531 -4.011719 2.449219 -4.089844 2.550781 -4.191406 C 2.671875 -4.3125 2.777344 -4.558594 2.863281 -4.921875 L 2.96875 -4.921875 L 2.96875 -4.636719 L 4.296875 -4.636719 C 4.261719 -4.914062 4.140625 -5.183594 3.933594 -5.441406 L 3.984375 -5.496094 C 4.382812 -5.304688 4.597656 -5.171875 4.621094 -5.105469 C 4.648438 -5.035156 4.660156 -4.992188 4.660156 -4.972656 C 4.660156 -4.871094 4.601562 -4.757812 4.480469 -4.636719 L 5.703125 -4.636719 L 5.910156 -4.871094 L 6.355469 -4.453125 C 6.128906 -4.453125 5.832031 -4.253906 5.46875 -3.855469 L 5.390625 -3.90625 M 0.910156 -1.847656 C 1.363281 -1.902344 1.78125 -1.945312 2.160156 -1.980469 L 2.160156 -1.875 C 1.78125 -1.804688 1.46875 -1.734375 1.222656 -1.667969 C 0.980469 -1.597656 0.796875 -1.5 0.675781 -1.378906 L 0.390625 -1.847656 C 0.496094 -1.867188 0.625 -1.949219 0.78125 -2.097656 C 0.9375 -2.242188 1.222656 -2.621094 1.640625 -3.230469 C 1.066406 -3.140625 0.710938 -3.019531 0.574219 -2.863281 L 0.3125 -3.332031 C 0.46875 -3.351562 0.671875 -3.609375 0.925781 -4.113281 C 1.175781 -4.617188 1.335938 -5.035156 1.40625 -5.363281 L 1.875 -5.050781 C 1.753906 -4.984375 1.597656 -4.773438 1.40625 -4.425781 C 1.199219 -4.0625 0.964844 -3.6875 0.703125 -3.308594 L 1.691406 -3.359375 C 1.796875 -3.515625 1.902344 -3.742188 2.003906 -4.035156 L 2.449219 -3.722656 C 2.292969 -3.621094 2.117188 -3.4375 1.925781 -3.175781 C 1.71875 -2.898438 1.378906 -2.457031 0.910156 -1.847656 M 0.261719 -0.46875 C 0.574219 -0.503906 0.859375 -0.546875 1.121094 -0.597656 C 1.363281 -0.652344 1.746094 -0.730469 2.265625 -0.832031 L 2.292969 -0.730469 C 1.980469 -0.640625 1.636719 -0.535156 1.261719 -0.402344 C 0.890625 -0.273438 0.640625 -0.140625 0.519531 0 Z "/>
</g>
</g>
</defs>
<g fill="rgb(100%, 100%, 100%)" fill-opacity="1">
<use xlink:href="#glyph-0-0" x="30" y="25.728516"/>
<use xlink:href="#glyph-0-1" x="37" y="25.728516"/>
<use xlink:href="#glyph-0-2" x="44" y="25.728516"/>
<use xlink:href="#glyph-0-3" x="51" y="25.728516"/>
<use xlink:href="#glyph-0-4" x="58" y="25.728516"/>
</g>
</svg>
